<?xml version="1.0" encoding="utf-8"?>
<!-- Generator: Adobe Adobe Illustrator 24.2.0, SVG Export Plug-In . SVG Version: 6.00 Build 0)  -->
<svg version="1.1" id="Layer_1" xmlns="http://www.w3.org/2000/svg" xmlns:xlink="http://www.w3.org/1999/xlink" x="0px" y="0px"
	 width="800px" height="800px" viewBox="0 0 800 800" style="enable-background:new 0 0 800 800;" xml:space="preserve">
<style type="text/css">
	.st0{fill:#E20029;}
	.st1{fill-opacity:0;stroke:#000000;stroke-opacity:0;}
</style>
<g>
	<g>
		<path id="bZOASuFLi" class="st0" d="M686.1,778.5c-30.6,0-275.2,0-305.8,0c37-32.5,60.2-80.1,60.2-132.9
			c0-69.1-39.6-129-97.5-158.3c-24-12.1-51.2-19.1-79.9-19.1c-79.7,0-147.5,53-169.6,125.6c6.4-25.7,38.5-154.2,96.1-385.5
			l48.6-194.9l249,107.3C468.5,196.1,458.1,238,456,246.4c148,71.8,250.5,223.8,250.5,399.1C706.5,691.8,699.4,736.5,686.1,778.5z"
			/>
	</g>
	<g>
		<g>
			<path id="bZOASuFLi_1_" class="st1" d="M686.1,778.5c-30.6,0-275.2,0-305.8,0c37-32.5,60.2-80.1,60.2-132.9
				c0-69.1-39.6-129-97.5-158.3c-24-12.1-51.2-19.1-79.9-19.1c-79.7,0-147.5,53-169.6,125.6c6.4-25.7,38.5-154.2,96.1-385.5
				l48.6-194.9l249,107.3C468.5,196.1,458.1,238,456,246.4c148,71.8,250.5,223.8,250.5,399.1C706.5,691.8,699.4,736.5,686.1,778.5z"
				/>
		</g>
	</g>
</g>
<path class="st0" d="M380.6,736.7c3.8-3.3,0.6-9-4.7-8.1c-10.5,1.7-105.5,32.6-111.4,32.2c-4.1-0.3-7.8-3.9-9.8-5.8
	c-5.4-5-2.1-18.1-1.9-18.5c3.4-5.8,8.7-10.8,13.6-12.1c10.4-2.7,22.9-6.5,26.5-7.4c13.8-3.6,17.2-5.3,52.6-14.6
	c10.2-2.7,28.7-7.5,34.7-9.4c3-0.9,2.2-4.7,1.2-5.5c-3.7-2.8-18.1-7.1-19.8-8c-1.4-0.7-2-0.9-0.6-1.3c8.3-2.2,14.5-3.6,18.6-5.7
	c2.6-1.4,2.9-2.1,2.9-3.7c0.2-4.2-2.5-6.7-8.1-5.1c-27.4,8.1-95.7,28.7-105,31.5c-5.1,1.5-12.3-1.3-13.7-3.1
	c-6.5-8.6-4.2-16.8-2.8-20c3.5-8.2,4.6-8,8.1-9.7c11.3-5.2,34.7-11.1,39.2-12.3c3.5-1,33.1-9,55.6-15.2c14.4-3.9,19.9-4.8,24.8-7.4
	c1.6-0.9,1.7-3.4,0.2-4.3c-5.5-3.4-15.2-5.7-18.3-6.9c-1.5-0.6,0-1.1,0-1.1c0.8-0.1,15.5-2.7,18.7-6.3c2.2-2.5,0-7-1.9-7.2
	c-4.3-0.5-8,1.2-8.2,1c-0.4-0.3-108,30.5-113.5,29.5c-3.6-0.7-5.3-1.5-5.1-1.5c0,0-2.5-0.8-3.2-1.6c-4.7-5.3-8.4-11.2-6.1-19.1
	c1.8-6.2,13.1-10.5,13.1-10.5l-22.4-10.2c0,0-17,9.6-4.3,37c0.2,0.5,3.7,2.8,11.2,6.1c4.7,2.1,12.4,5.2,13.4,5.2c0,0,4,0.8,8.8,3
	c1.6,0.7,1.1,4.9-0.2,6.4c-0.9,1.1-4.8,1.2-8,0.9c-3.2-0.3-61.9-26.7-89.4-38.8c-2.6-1.1-4.9-2.1-6.9-3c-4-1.7-6.5-2.8-7-2.9
	c-2.6-0.6-11.3,0.9-17.2,9.5c-6.2,9-8.1,30.4,0.9,38.3c7.5,6.6,23.2,11.7,46.1,21.1c17.4,7.2,40.3,18.2,53.3,24
	c2.6,1.2,17.5,6.5,29.4,12.6c0.7,0.3,2.9,3.9-1.5,7.7c-2,1.7-6.3,0-14.1-3.2c-0.4-0.2-77.5-33.8-80.3-35.4
	c-3.2-1.7-13,8.2-13.6,19.2c-0.3,5.3-1,20.5,5.5,27.2c3.6,3.7,9.8,5.2,20.6,10.2c10.9,5.1,30.6,14.5,43.1,19.2
	c2.9,1.1,27.2,13,35,15.6c0.4,0.1,0.9,0.4,2.1,1c0.7-0.1,2,0,2.6,0c2.1-0.3,4.2-0.7,6.2-1.2c4.9-1.1,62.1-18.4,67.1-19.5"/>
<path class="st0" d="M159.2,545.9c0,0,61.9-16.7,88.4-23.4c2-0.5,9-2.9,14.2-2.6c5.7,0.3,8.1,1.7,8.1,1.7l106.2,41.9
	c0,0,3.4,1.4,3.9,2c0.4,0.5,0.2,1.1-0.1,1.3c-0.6,0.3-2.5,0.7-2.5,0.7L276,594.7c0,0-6.3,1.3-8.2,1.7c-3.3,0.7-5.8,1.4-13.8,4.1
	c-4.3,1.4-13.1-7-8.3-5.2c1.4,0.5,4.3,0.6,5.4-0.6c0.9-1,1.8-3.6,0-5.4L159.2,545.9z"/>
<path class="st0" d="M130.3,581.4c-5.5-20,5.5-33.6,11.6-33.6c6.5,0,24.6,9.7,24.6,9.7s-7.4,4-10.3,16c-2.2,9.2,0.9,23,0.9,23
	S132.3,588.6,130.3,581.4z"/>
<path class="st0" d="M166.6,599.8c-3.3-3.1-4.7-16.2-2.4-25.3s8.2-14,11-12.7c7.4,3.5,50.7,23.9,50.7,23.9s-6.3,3.6-8.9,16
	c-2.7,13.2,3.8,22.2,3.8,22.2S173.4,606.3,166.6,599.8z"/>
<rect x="310.4" y="554.6" class="st0" width="2.2" height="2.2"/>
<path class="st0" d="M132.5,711.1c-4.1-9.4-4.9-18.7-2.9-26.2c2.6-9.9,12-18.7,16.7-16.7c15.3,6.7,11.9,5.4,11.9,5.4
	s-9.6,6.6-11.9,19.3c-2.8,15.8,1.9,27.5,1.9,27.5S134.3,715.2,132.5,711.1z"/>
<polygon class="st0" points="147.7,592.7 160.8,554.6 215.9,580.9 200.7,616.1 "/>
<polygon class="st0" points="205.5,618 218.5,582.2 241.8,593.3 236.7,630.1 "/>
<polygon class="st0" points="138,715.7 152.2,670.8 175.1,681.2 169.7,729.8 "/>
</svg>
