<?xml version="1.0" encoding="utf-8"?>
<!-- Generator: Adobe Adobe Illustrator 24.2.0, SVG Export Plug-In . SVG Version: 6.00 Build 0)  -->
<svg version="1.1" id="Layer_1" xmlns="http://www.w3.org/2000/svg" xmlns:xlink="http://www.w3.org/1999/xlink" x="0px" y="0px"
	 width="1200px" height="400px" viewBox="0 0 1200 400" style="enable-background:new 0 0 1200 400;" xml:space="preserve">
<style type="text/css">
	.st0{fill:#E20029;}
	.st1{fill-opacity:0;stroke:#000000;stroke-opacity:0;}
</style>
<g>
	<g>
		<path id="bZOASuFLi" class="st0" d="M342.8,387.1c-15.1,0-135.7,0-150.8,0c18.2-16,29.7-39.5,29.7-65.6
			c0-34.1-19.5-63.6-48.1-78.1c-11.9-6-25.3-9.4-39.4-9.4c-39.3,0-72.8,26.2-83.6,62c3.2-12.7,19-76.1,47.4-190.1l24-96.1
			l122.8,52.9c-9.2,37.2-14.3,57.9-15.4,62.1c73,35.4,123.5,110.4,123.5,196.9C352.8,344.3,349.3,366.4,342.8,387.1z"/>
	</g>
	<g>
		<g>
			<path id="bZOASuFLi_1_" class="st1" d="M342.8,387.1c-15.1,0-135.7,0-150.8,0c18.2-16,29.7-39.5,29.7-65.6
				c0-34.1-19.5-63.6-48.1-78.1c-11.9-6-25.3-9.4-39.4-9.4c-39.3,0-72.8,26.2-83.6,62c3.2-12.7,19-76.1,47.4-190.1l24-96.1
				l122.8,52.9c-9.2,37.2-14.3,57.9-15.4,62.1c73,35.4,123.5,110.4,123.5,196.9C352.8,344.3,349.3,366.4,342.8,387.1z"/>
		</g>
	</g>
</g>
<g>
	<g>
		<path id="dDejZbfUx" class="st0" d="M424,258.6v51.3h29.2v-51.3h33.3v129.1h-33.3v-47.1H424v47.1h-33.3V258.6H424z"/>
	</g>
	<g>
		<g>
			<path id="dDejZbfUx_1_" class="st1" d="M424,258.6v51.3h29.2v-51.3h33.3v129.1h-33.3v-47.1H424v47.1h-33.3V258.6H424z"/>
		</g>
	</g>
</g>
<g>
	<g>
		<path id="l573z81Q6" class="st0" d="M579.2,387.7l-7.4-22.5h-33.9l-7.3,22.5h-34.3l39.6-129.1h39.4l38.2,129.1H579.2z
			 M565.1,336.1l-9-34.6l-10.4,34.6H565.1z"/>
	</g>
	<g>
		<g>
			<path id="l573z81Q6_1_" class="st1" d="M579.2,387.7l-7.4-22.5h-33.9l-7.3,22.5h-34.3l39.6-129.1h39.4l38.2,129.1H579.2z
				 M565.1,336.1l-9-34.6l-10.4,34.6H565.1z"/>
		</g>
	</g>
</g>
<g>
	<g>
		<path id="e6dgEJzAm" class="st0" d="M682.1,258.7l2,0.2l1.9,0.2l1.8,0.3l1.8,0.3l1.8,0.4l1.7,0.4l1.7,0.5l1.6,0.6l1.6,0.7l1.5,0.8
			l1.5,0.8l1.4,0.9l1.3,1l1.3,1.1l1.3,1.2l1.2,1.2l1.1,1.4l1.1,1.4l1,1.5l0.9,1.6l0.9,1.7l0.8,1.9l0.7,1.9l0.6,2l0.5,2.2l0.5,2.3
			l0.4,2.4l0.3,2.5l0.2,2.6l0.1,2.7l0,2.9v2.7l-0.1,2.6l-0.1,2.5l-0.2,2.3l-0.2,2.2l-0.3,2l-0.3,1.9l-0.4,1.8l-0.4,1.7l-0.4,1.6
			l-0.5,1.5l-0.5,1.4l-0.5,1.3l-0.6,1.2l-0.6,1.1l-0.6,1.1l-0.6,1l-0.7,0.9l-0.7,0.8l-0.7,0.8l-0.7,0.7l-0.7,0.7l-0.8,0.6l-0.8,0.6
			l-0.8,0.5l-0.8,0.5l-0.8,0.4l-0.8,0.4l-0.8,0.4l-0.8,0.4l-0.8,0.3l-0.8,0.3l-0.8,0.3l21.5,48.9h-38l-16.1-45.7l-10.4-2.4v48.1
			h-33.3V258.6h56.4l2,0L682.1,258.7z M655.4,314.1h18.4l2.8-1.7l2.3-1.9l1.8-2.2l1.3-2.4l0.8-2.7l0.2-2.9l-0.2-3.6l-0.6-3l-1.1-2.4
			l-1.7-1.8l-2.4-1.1l-3.3-0.4h-18.4V314.1z"/>
	</g>
	<g>
		<g>
			<path id="e6dgEJzAm_1_" class="st1" d="M682.1,258.7l2,0.2l1.9,0.2l1.8,0.3l1.8,0.3l1.8,0.4l1.7,0.4l1.7,0.5l1.6,0.6l1.6,0.7
				l1.5,0.8l1.5,0.8l1.4,0.9l1.3,1l1.3,1.1l1.3,1.2l1.2,1.2l1.1,1.4l1.1,1.4l1,1.5l0.9,1.6l0.9,1.7l0.8,1.9l0.7,1.9l0.6,2l0.5,2.2
				l0.5,2.3l0.4,2.4l0.3,2.5l0.2,2.6l0.1,2.7l0,2.9v2.7l-0.1,2.6l-0.1,2.5l-0.2,2.3l-0.2,2.2l-0.3,2l-0.3,1.9l-0.4,1.8l-0.4,1.7
				l-0.4,1.6l-0.5,1.5l-0.5,1.4l-0.5,1.3l-0.6,1.2l-0.6,1.1l-0.6,1.1l-0.6,1l-0.7,0.9l-0.7,0.8l-0.7,0.8l-0.7,0.7l-0.7,0.7l-0.8,0.6
				l-0.8,0.6l-0.8,0.5l-0.8,0.5l-0.8,0.4l-0.8,0.4l-0.8,0.4l-0.8,0.4l-0.8,0.3l-0.8,0.3l-0.8,0.3l21.5,48.9h-38l-16.1-45.7
				l-10.4-2.4v48.1h-33.3V258.6h56.4l2,0L682.1,258.7z M655.4,314.1h18.4l2.8-1.7l2.3-1.9l1.8-2.2l1.3-2.4l0.8-2.7l0.2-2.9l-0.2-3.6
				l-0.6-3l-1.1-2.4l-1.7-1.8l-2.4-1.1l-3.3-0.4h-18.4V314.1z"/>
		</g>
	</g>
</g>
<g>
	<g>
		<path id="b1VNqJFyT" class="st0" d="M775.6,345.7l22.5-87.1h35.1l-37.6,129.1h-40.2l-35.7-129.1h35.1L775.6,345.7z"/>
	</g>
	<g>
		<g>
			<path id="b1VNqJFyT_1_" class="st1" d="M775.6,345.7l22.5-87.1h35.1l-37.6,129.1h-40.2l-35.7-129.1h35.1L775.6,345.7z"/>
		</g>
	</g>
</g>
<g>
	<g>
		<path id="c7Yp8EzE8" class="st0" d="M898.6,387.7l-7.4-22.5h-33.9l-7.3,22.5h-34.3l39.6-129.1h39.4l38.2,129.1H898.6z
			 M884.5,336.1l-9-34.6l-10.4,34.6H884.5z"/>
	</g>
	<g>
		<g>
			<path id="c7Yp8EzE8_1_" class="st1" d="M898.6,387.7l-7.4-22.5h-33.9l-7.3,22.5h-34.3l39.6-129.1h39.4l38.2,129.1H898.6z
				 M884.5,336.1l-9-34.6l-10.4,34.6H884.5z"/>
		</g>
	</g>
</g>
<g>
	<g>
		<path id="b3Aduwp3IX" class="st0" d="M1001.5,258.7l1.9,0.2l1.9,0.2l1.9,0.3l1.8,0.3l1.8,0.4l1.7,0.4l1.7,0.5l1.6,0.6l1.6,0.7
			l1.5,0.8l1.5,0.8l1.4,0.9l1.3,1l1.3,1.1l1.2,1.2l1.2,1.2l1.1,1.4l1,1.4l1,1.5l0.9,1.6l0.8,1.7l0.8,1.9l0.7,1.9l0.6,2l0.6,2.2
			l0.5,2.3l0.4,2.4l0.3,2.5l0.2,2.6l0.1,2.7l0.1,2.9l0,2.7l-0.1,2.6l-0.1,2.5l-0.2,2.3l-0.2,2.2l-0.3,2l-0.3,1.9l-0.4,1.8l-0.4,1.7
			l-0.5,1.6l-0.5,1.5l-0.5,1.4l-0.6,1.3l-0.6,1.2l-0.6,1.1l-0.6,1.1l-0.6,1l-0.7,0.9l-0.7,0.8l-0.7,0.8l-0.7,0.7l-0.8,0.7l-0.7,0.6
			l-0.8,0.6l-0.8,0.5l-0.8,0.5l-0.8,0.4l-0.8,0.4l-0.8,0.4l-0.8,0.4l-0.8,0.3l-0.8,0.3l-0.8,0.3l21.5,48.9h-38l-16.1-45.7l-10.4-2.4
			v48.1h-33.3V258.6h56.4l2,0L1001.5,258.7z M974.8,314.1h18.4l2.8-1.7l2.3-1.9l1.8-2.2l1.3-2.4l0.8-2.7l0.2-2.9l-0.2-3.6l-0.6-3
			l-1.1-2.4l-1.7-1.8l-2.4-1.1l-3.2-0.4h-18.4V314.1z"/>
	</g>
	<g>
		<g>
			<path id="b3Aduwp3IX_1_" class="st1" d="M1001.5,258.7l1.9,0.2l1.9,0.2l1.9,0.3l1.8,0.3l1.8,0.4l1.7,0.4l1.7,0.5l1.6,0.6l1.6,0.7
				l1.5,0.8l1.5,0.8l1.4,0.9l1.3,1l1.3,1.1l1.2,1.2l1.2,1.2l1.1,1.4l1,1.4l1,1.5l0.9,1.6l0.8,1.7l0.8,1.9l0.7,1.9l0.6,2l0.6,2.2
				l0.5,2.3l0.4,2.4l0.3,2.5l0.2,2.6l0.1,2.7l0.1,2.9l0,2.7l-0.1,2.6l-0.1,2.5l-0.2,2.3l-0.2,2.2l-0.3,2l-0.3,1.9l-0.4,1.8l-0.4,1.7
				l-0.5,1.6l-0.5,1.5l-0.5,1.4l-0.6,1.3l-0.6,1.2l-0.6,1.1l-0.6,1.1l-0.6,1l-0.7,0.9l-0.7,0.8l-0.7,0.8l-0.7,0.7l-0.8,0.7l-0.7,0.6
				l-0.8,0.6l-0.8,0.5l-0.8,0.5l-0.8,0.4l-0.8,0.4l-0.8,0.4l-0.8,0.4l-0.8,0.3l-0.8,0.3l-0.8,0.3l21.5,48.9h-38l-16.1-45.7
				l-10.4-2.4v48.1h-33.3V258.6h56.4l2,0L1001.5,258.7z M974.8,314.1h18.4l2.8-1.7l2.3-1.9l1.8-2.2l1.3-2.4l0.8-2.7l0.2-2.9
				l-0.2-3.6l-0.6-3l-1.1-2.4l-1.7-1.8l-2.4-1.1l-3.2-0.4h-18.4V314.1z"/>
		</g>
	</g>
</g>
<g>
	<g>
		<path id="b1lsC1sbeg" class="st0" d="M1114,259.1l3.3,0.6l3.1,0.8l2.9,1l2.7,1.2l2.5,1.4l2.4,1.6l2.2,1.8l2,1.9l1.9,2.1l1.7,2.3
			l1.6,2.5l1.4,2.6l1.3,2.8l1.1,2.9l1,3l0.9,3.1l0.8,3.3l0.6,3.4l0.6,3.5l0.5,3.6l0.4,3.7l0.3,3.8l0.2,3.9l0.1,4l0,4.1l-0.1,4.9
			l-0.2,4.7l-0.3,4.5l-0.4,4.3l-0.5,4.1l-0.6,3.9l-0.7,3.7l-0.9,3.5l-1,3.2l-1.1,3.1l-1.3,2.9l-1.3,2.7l-1.5,2.5l-1.6,2.3l-1.7,2.1
			l-1.8,1.9l-1.9,1.7l-2.1,1.6l-2.2,1.4l-2.3,1.2l-2.4,1.1l-2.5,0.9l-2.6,0.7l-2.8,0.5l-2.9,0.4l-3,0.2l-3.1,0.1h-59V258.6h59
			l3.7,0.1L1114,259.1z M1081.1,358.8h22.1l2.1-1.8l1.9-2l1.7-2.3l1.5-2.4l1.3-2.6l1.2-2.8l1-3l0.8-3.2l0.6-3.5l0.5-3.6l0.3-3.8
			l0.1-4l-0.1-7.4l-0.3-6.3l-0.5-5.3l-0.7-4.4l-0.9-3.6l-1-2.8l-1.2-2.2l-1.3-1.6l-1.5-1.1l-1.7-0.7l-1.8-0.3l-2-0.1h-22.1V358.8z"
			/>
	</g>
	<g>
		<g>
			<path id="b1lsC1sbeg_1_" class="st1" d="M1114,259.1l3.3,0.6l3.1,0.8l2.9,1l2.7,1.2l2.5,1.4l2.4,1.6l2.2,1.8l2,1.9l1.9,2.1
				l1.7,2.3l1.6,2.5l1.4,2.6l1.3,2.8l1.1,2.9l1,3l0.9,3.1l0.8,3.3l0.6,3.4l0.6,3.5l0.5,3.6l0.4,3.7l0.3,3.8l0.2,3.9l0.1,4l0,4.1
				l-0.1,4.9l-0.2,4.7l-0.3,4.5l-0.4,4.3l-0.5,4.1l-0.6,3.9l-0.7,3.7l-0.9,3.5l-1,3.2l-1.1,3.1l-1.3,2.9l-1.3,2.7l-1.5,2.5l-1.6,2.3
				l-1.7,2.1l-1.8,1.9l-1.9,1.7l-2.1,1.6l-2.2,1.4l-2.3,1.2l-2.4,1.1l-2.5,0.9l-2.6,0.7l-2.8,0.5l-2.9,0.4l-3,0.2l-3.1,0.1h-59
				V258.6h59l3.7,0.1L1114,259.1z M1081.1,358.8h22.1l2.1-1.8l1.9-2l1.7-2.3l1.5-2.4l1.3-2.6l1.2-2.8l1-3l0.8-3.2l0.6-3.5l0.5-3.6
				l0.3-3.8l0.1-4l-0.1-7.4l-0.3-6.3l-0.5-5.3l-0.7-4.4l-0.9-3.6l-1-2.8l-1.2-2.2l-1.3-1.6l-1.5-1.1l-1.7-0.7l-1.8-0.3l-2-0.1h-22.1
				V358.8z"/>
		</g>
	</g>
</g>
<g>
	<g>
		<path id="asuD8wxTY" class="st0" d="M449.1,11.5v89.9h51.1V11.5h58.4v226.2h-58.4v-82.6h-51.1v82.6h-58.4V11.5H449.1z"/>
	</g>
	<g>
		<g>
			<path id="asuD8wxTY_1_" class="st1" d="M449.1,11.5v89.9h51.1V11.5h58.4v226.2h-58.4v-82.6h-51.1v82.6h-58.4V11.5H449.1z"/>
		</g>
	</g>
</g>
<g>
	<g>
		<path id="b1u2bEnII" class="st0" d="M721.2,237.7l-12.9-39.6h-59.4l-12.7,39.6h-59.9l68.9-226.2h68.9l66.8,226.2H721.2z
			 M696.5,147.2l-15.9-60.5l-18.4,60.5H696.5z"/>
	</g>
	<g>
		<g>
			<path id="b1u2bEnII_1_" class="st1" d="M721.2,237.7l-12.9-39.6h-59.4l-12.7,39.6h-59.9l68.9-226.2h68.9l66.8,226.2H721.2z
				 M696.5,147.2l-15.9-60.5l-18.4,60.5H696.5z"/>
		</g>
	</g>
</g>
<g>
	<g>
		<path id="b3azZgJFfK" class="st0" d="M938.7,21.1c0,4.7,0,42,0,46.6c-0.4,0-30.4-5.2-61.5-5.2c-25.3,0-35.8-1.2-35.8,61.9
			c0,50.7,5.7,61.1,36,61.1c31.6,0,61.1-2.8,61.1-2.8c0,4.7,0,42,0,46.7c-18.6,8-34.9,10.9-79.5,9.9c-55.6-1-76.2-39.6-76.2-115.6
			c0.2-72,16.5-114.8,76.4-114.8C902.5,8.9,912.9,11.3,938.7,21.1z"/>
	</g>
	<g>
		<g>
			<path id="b3azZgJFfK_1_" class="st1" d="M938.7,21.1c0,4.7,0,42,0,46.6c-0.4,0-30.4-5.2-61.5-5.2c-25.3,0-35.8-1.2-35.8,61.9
				c0,50.7,5.7,61.1,36,61.1c31.6,0,61.1-2.8,61.1-2.8c0,4.7,0,42,0,46.7c-18.6,8-34.9,10.9-79.5,9.9c-55.6-1-76.2-39.6-76.2-115.6
				c0.2-72,16.5-114.8,76.4-114.8C902.5,8.9,912.9,11.3,938.7,21.1z"/>
		</g>
	</g>
</g>
<g>
	<g>
		<path id="bdBu2jBXU" class="st0" d="M1013.6,11.5v88.9h12l44.8-89.1h67.2L1077,125.1l60.5,112.6h-67.2l-44.8-86.7h-11.8v86.7
			h-55.6V11.5H1013.6z"/>
	</g>
	<g>
		<g>
			<path id="bdBu2jBXU_1_" class="st1" d="M1013.6,11.5v88.9h12l44.8-89.1h67.2L1077,125.1l60.5,112.6h-67.2l-44.8-86.7h-11.8v86.7
				h-55.6V11.5H1013.6z"/>
		</g>
	</g>
</g>
<path class="st0" d="M192.1,366.5c1.9-1.6,0.3-4.4-2.3-4c-5.2,0.8-52,16.1-54.9,15.9c-2-0.1-3.8-1.9-4.8-2.8c-2.7-2.5-1-8.9-0.9-9.1
	c1.7-2.9,4.3-5.3,6.7-6c5.1-1.3,11.3-3.2,13.1-3.7c6.8-1.8,8.5-2.6,25.9-7.2c5-1.3,14.2-3.7,17.1-4.6c1.5-0.5,1.1-2.3,0.6-2.7
	c-1.8-1.4-8.9-3.5-9.7-3.9c-0.7-0.3-1-0.5-0.3-0.6c4.1-1.1,7.2-1.8,9.2-2.8c1.3-0.7,1.4-1,1.5-1.8c0.1-2.1-1.2-3.3-4-2.5
	c-13.5,4-47.2,14.2-51.8,15.5c-2.5,0.7-6-0.6-6.7-1.5c-3.2-4.2-2.1-8.3-1.4-9.9c1.7-4,2.2-4,4-4.8c5.6-2.6,17.1-5.5,19.3-6.1
	c1.7-0.5,16.3-4.5,27.4-7.5c7.1-1.9,9.8-2.4,12.2-3.7c0.8-0.4,0.8-1.7,0.1-2.1c-2.7-1.7-7.5-2.8-9-3.4c-0.8-0.3,0-0.5,0-0.5
	c0.4-0.1,7.6-1.3,9.2-3.1c1.1-1.2,0-3.5-1-3.6c-2.1-0.2-3.9,0.6-4,0.5c-0.2-0.1-53.3,15.1-56,14.6c-1.8-0.3-2.6-0.7-2.5-0.7
	c0,0-1.2-0.4-1.6-0.8c-2.3-2.6-4.1-5.5-3-9.4c0.9-3.1,6.5-5.2,6.5-5.2l-11-5c0,0-8.4,4.8-2.1,18.2c0.1,0.2,1.8,1.4,5.5,3
	c2.3,1,6.1,2.6,6.6,2.6c0,0,2,0.4,4.3,1.5c0.8,0.4,0.6,2.4-0.1,3.2c-0.5,0.5-2.3,0.6-3.9,0.4c-1.6-0.1-30.5-13.2-44.1-19.1
	c-1.3-0.6-2.4-1.1-3.4-1.5c-2-0.9-3.2-1.4-3.5-1.4c-1.3-0.3-5.6,0.5-8.5,4.7c-3.1,4.4-4,15,0.5,18.9c3.7,3.2,11.5,5.8,22.7,10.4
	c8.6,3.5,19.9,9,26.3,11.8c1.3,0.6,8.7,3.2,14.5,6.2c0.3,0.2,1.4,1.9-0.7,3.8c-1,0.8-3.1,0-7-1.6c-0.2-0.1-38.2-16.7-39.6-17.4
	c-1.6-0.9-6.4,4-6.7,9.4c-0.1,2.6-0.5,10.1,2.7,13.4c1.8,1.8,4.8,2.6,10.2,5c5.4,2.5,15.1,7.2,21.2,9.5c1.4,0.5,13.4,6.4,17.3,7.7
	c0.2,0.1,0.5,0.2,1,0.5c0.3,0,1,0,1.3,0c1-0.1,2.1-0.4,3.1-0.6c2.4-0.6,30.6-9.1,33.1-9.6"/>
<path class="st0" d="M82.9,272.4c0,0,30.5-8.2,43.6-11.5c1-0.3,4.4-1.4,7-1.3c2.8,0.1,4,0.8,4,0.8l52.4,20.7c0,0,1.7,0.7,1.9,1
	c0.2,0.2,0.1,0.6-0.1,0.6c-0.3,0.1-1.2,0.4-1.2,0.4l-50,13.4c0,0-3.1,0.7-4.1,0.8c-1.6,0.3-2.9,0.7-6.8,2c-2.1,0.7-6.5-3.5-4.1-2.5
	c0.7,0.3,2.1,0.3,2.7-0.3c0.5-0.5,0.9-1.8,0-2.6L82.9,272.4z"/>
<path class="st0" d="M68.7,289.9c-2.7-9.8,2.7-16.6,5.7-16.6c3.2,0,12.2,4.8,12.2,4.8s-3.7,2-5.1,7.9c-1.1,4.5,0.5,11.3,0.5,11.3
	S69.6,293.5,68.7,289.9z"/>
<path class="st0" d="M86.5,299c-1.6-1.5-2.3-8-1.2-12.5c1.1-4.5,4-6.9,5.4-6.3c3.7,1.7,25,11.8,25,11.8s-3.1,1.8-4.4,7.9
	c-1.4,6.5,1.9,11,1.9,11S89.9,302.2,86.5,299z"/>
<rect x="157.5" y="276.7" class="st0" width="1.1" height="1.1"/>
<path class="st0" d="M69.8,353.9c-2-4.6-2.4-9.2-1.4-12.9c1.3-4.9,5.9-9.2,8.2-8.2c7.6,3.3,5.9,2.7,5.9,2.7s-4.8,3.2-5.9,9.5
	c-1.4,7.8,0.9,13.6,0.9,13.6S70.6,355.9,69.8,353.9z"/>
<polygon class="st0" points="77.2,295.5 83.7,276.7 110.9,289.7 103.4,307 "/>
<polygon class="st0" points="105.7,307.9 112.1,290.3 123.6,295.8 121.1,313.9 "/>
<polygon class="st0" points="72.4,356.2 79.4,334 90.7,339.1 88.1,363.1 "/>
</svg>
